:SAMPLES-PER-SECOND 30
:FULLY-SPECIFIED
:DEGREES
366
root  30.0285 37.2416 5.11625 87.7612 84.2924 94.9724
RightUpLeg  8.17091 -4.41601 -9.52213
RightLeg  48.8568 -0.561113 -1.01682
RightFoot  -7.34347 -0.405475 15.2689
RightToes  -4.65661e-009 0 -3.6325e-017
Spine  8.79858 3.03729 2.51372
Spine1  4.76952 5.38789 -10.6996
HEad  -6.57441 -1.90697 -3.68392
LeftShoulder1  -0.398343 4.5432 -32.2022
LeftArm  -3.51734 17.907 -38.894
LeftForeArm  33.925 -11.7358 -7.17468
LeftHand  -0.114664 8.19855 -2.73057
RightShoulder  -0.858364 -5.8759 29.5818
RightArm  25.9077 2.20803 54.0208
RightForeArm  13.5757 13.5585 7.89118
RightHand  -0.0632203 3.67001 -1.06744
LeftUpLeg  -17.793 3.55771 -8.95657
LeftLeg  26.493 6.03412 3.60554
LeftFoot  -0.392665 -0.816924 8.51766
LeftToes  9.86798e-010 -1.28139e-010 1.4132e-011
367
root  31.4381 37.2981 5.03307 84.4818 83.1023 91.723
RightUpLeg  0.789675 -4.09269 -11.2163
RightLeg  60.3185 -0.233619 -0.926844
RightFoot  7.6647 -1.39713 8.24877
RightToes  -4.65661e-009 0 -3.6325e-017
Spine  9.09143 3.14214 1.06913
Spine1  4.5149 5.38911 -11.1453
HEad  -6.76678 -0.618855 -4.55623
LeftShoulder1  -0.414274 4.5832 -32.2239
LeftArm  -1.59571 17.0081 -38.902
LeftForeArm  31.1326 -13.8782 -6.64549
LeftHand  -0.0963189 7.55071 -2.65943
RightShoulder  -0.816598 -5.75817 29.5991
RightArm  19.8967 2.38665 53.3931
RightForeArm  20.1102 7.29084 9.56971
RightHand  -0.0267793 3.23226 -0.587201
LeftUpLeg  -15.8426 4.4774 -10.2217
LeftLeg  27.619 5.79346 3.63601
LeftFoot  -3.33575 -0.567003 8.34634
LeftToes  9.86798e-010 -1.28139e-010 1.4132e-011
368
root  32.7507 37.3144 5.01128 89.1781 82.1886 96.3136
RightUpLeg  -5.07766 -4.77964 -12.3037
RightLeg  66.9962 0.628272 0.994271
RightFoot  8.99542 -1.00623 5.91987
RightToes  -4.65661e-009 0 -3.6325e-017
Spine  9.30152 3.07168 -0.733722
Spine1  4.60052 4.94704 -10.7139
HEad  -7.62225 -0.687074 -5.38473
LeftShoulder1  -0.449583 4.65931 -32.7521
LeftArm  2.43695 15.5309 -38.5611
LeftForeArm  26.7071 -16.7852 -5.86773
LeftHand  -0.0507478 6.84648 -1.06004
RightShoulder  -0.789572 -5.68226 29.6069
RightArm  17.7415 1.61071 52.1204
RightForeArm  24.944 4.84342 9.22449
RightHand  0.0222077 1.59834 0.216032
LeftUpLeg  -14.1322 4.40176 -11.1526
LeftLeg  28.6167 5.6562 3.69654
LeftFoot  -6.03078 -0.320036 7.69429
LeftToes  9.86798e-010 -1.28139e-010 1.4132e-011
369
root  34.0681 37.5061 4.96811 98.0006 82.1611 105.255
RightUpLeg  -9.58279 -5.77452 -12.2385
RightLeg  68.6901 2.04146 4.99894
RightFoot  5.70033 -1.11956 7.76383
RightToes  -4.65661e-009 0 -3.6325e-017
Spine  10.176 2.58574 -0.622976
Spine1  3.97868 4.392 -10.978
HEad  -8.30308 -0.110021 -6.05426
LeftShoulder1  -0.395819 4.53471 -32.2531
LeftArm  5.77692 14.462 -39.1583
LeftForeArm  22.4644 -20.0944 -4.64598
LeftHand  -0.0341732 7.04646 0.25636
RightShoulder  -0.820037 -5.77218 29.5245
RightArm  16.6512 -0.287167 50.4547
RightForeArm  26.2328 4.66479 8.64866
RightHand  0.0487673 1.81755 0.635575
LeftUpLeg  -11.3221 3.78392 -10.9705
LeftLeg  28.0202 5.13525 3.31988
LeftFoot  -7.94792 -0.168559 7.28584
LeftToes  9.86798e-010 -1.28139e-010 1.4132e-011
370
root  35.413 37.7241 4.97122 109.614 82.1188 116.687
RightUpLeg  -13.5416 -6.89191 -11.6114
RightLeg  66.596 2.55972 5.84931
RightFoot  3.59681 -1.29148 9.97317
RightToes  -4.65661e-009 0 -3.6325e-017
Spine  10.0987 2.16493 -0.974948
Spine1  4.01894 3.7327 -10.1843
HEad  -8.96769 -0.398218 -6.25986
LeftShoulder1  -0.470041 4.71877 -32.5505
LeftArm  6.56309 13.3561 -39.0442
LeftForeArm  21.5025 -23.8705 -3.96744
LeftHand  -0.030522 6.5588 0.505561
RightShoulder  -0.78004 -5.68585 29.115
RightArm  15.8787 -2.6337 48.4806
RightForeArm  23.4827 5.60914 8.17733
RightHand  -0.00159604 2.3999 -0.223723
LeftUpLeg  -8.65471 2.76535 -10.4484
LeftLeg  27.081 4.72591 2.98448
LeftFoot  -9.60928 -0.0434482 6.70619
LeftToes  9.86798e-010 -1.28139e-010 1.4132e-011
371
root  36.764 37.9564 4.99347 120.276 81.8273 126.843
RightUpLeg  -17.0109 -7.58774 -10.9874
RightLeg  61.1627 2.56477 4.57422
RightFoot  2.3071 -1.06318 9.00316
RightToes  -4.65661e-009 0 -3.6325e-017
Spine  10.0394 1.87113 -0.879653
Spine1  3.4343 3.36399 -9.77269
HEad  -9.1174 -0.482888 -6.1377
LeftShoulder1  -0.441729 4.65428 -32.2444
LeftArm  4.76464 13.1182 -38.9651
LeftForeArm  22.9629 -28.248 -4.84291
LeftHand  -0.0223491 6.0088 1.49212
RightShoulder  -0.834534 -5.84899 28.9761
RightArm  15.3649 -5.53658 46.2222
RightForeArm  20.539 7.72153 7.59014
RightHand  -0.0407714 2.14979 -0.804069
LeftUpLeg  -6.00004 2.26365 -9.74806
LeftLeg  25.3516 4.03604 2.4443
LeftFoot  -10.9517 0.0446089 6.37237
LeftToes  9.86798e-010 -1.28139e-010 1.4132e-011
372
root  38.0987 38.1978 5.00827 132.035 81.14 138.28
RightUpLeg  -18.7036 -7.67282 -10.6644
RightLeg  52.2142 1.93296 2.34866
RightFoot  0.341621 -0.880339 8.60077
RightToes  -4.65661e-009 0 -3.6325e-017
Spine  10.0386 1.28008 -0.638658
Spine1  2.77407 2.73595 -9.20546
HEad  -9.17462 -1.20656 -5.54076
LeftShoulder1  -0.405857 4.57811 -31.6503
LeftArm  2.77049 13.4401 -38.9951
LeftForeArm  25.1824 -32.8221 -5.81818
LeftHand  -0.0317786 4.92163 1.65782
RightShoulder  -0.836375 -5.86371 28.8336
RightArm  15.8336 -7.9326 44.2841
RightForeArm  18.0437 9.59966 7.17526
RightHand  -0.014193 2.24845 -0.398573
LeftUpLeg  -2.87954 1.6161 -8.88218
LeftLeg  22.9376 3.04315 1.78501
LeftFoot  -11.8439 0.0985905 6.2236
LeftToes  9.86798e-010 -1.28139e-010 1.4132e-011
373
root  39.4272 38.3 5.05405 139.607 80.0164 145.43
RightUpLeg  -19.3381 -6.95381 -11.1638
RightLeg  41.285 0.505024 0.210384
RightFoot  -1.01893 -0.741358 8.13141
RightToes  -4.65661e-009 0 -3.6325e-017
Spine  9.93191 0.944967 -0.782345
Spine1  2.2988 2.35338 -8.82366
HEad  -9.56062 -1.54997 -5.33773
LeftShoulder1  -0.467885 4.74629 -31.5125
LeftArm  2.28433 13.1062 -38.2768
LeftForeArm  26.3178 -37.4091 -6.957
LeftHand  -0.0316416 5.03495 2.07565
RightShoulder  -0.866086 -5.93244 29.067
RightArm  16.7482 -9.72528 42.289
RightForeArm  16.0486 11.1617 6.83878
RightHand  -0.0440599 3.60214 -0.823832
LeftUpLeg  -0.350927 1.67693 -8.14179
LeftLeg  21.4105 1.33358 1.04937
LeftFoot  -13.1001 0.170866 6.01111
LeftToes  9.86798e-010 -1.28139e-010 1.4132e-011
374
root  40.8031 38.3102 5.15784 146.892 78.1755 152.091
RightUpLeg  -18.9457 -5.02503 -12.5807
RightLeg  29.2228 -0.363136 -0.437796
RightFoot  -1.4141 -0.759044 8.61367
RightToes  -4.65661e-009 0 -3.6325e-017
Spine  9.45462 0.590396 -1.3809
Spine1  2.10317 1.84294 -7.8078
HEad  -9.99656 -2.71602 -4.8419
LeftShoulder1  -0.504497 4.84819 -31.3881
LeftArm  1.4862 12.785 -37.8513
LeftForeArm  27.9138 -41.2599 -7.99396
LeftHand  -0.0400417 4.58677 2.44898
RightShoulder  -0.929403 -6.11777 28.9954
RightArm  17.3219 -11.3683 40.8304
RightForeArm  15.0595 12.3335 6.45779
RightHand  -0.0433294 3.61783 -0.814658
LeftUpLeg  1.73682 1.452 -7.36839
LeftLeg  20.3916 -0.731015 0.360695
LeftFoot  -14.5354 0.252522 5.88648
LeftToes  9.86798e-010 -1.28139e-010 1.4132e-011
375
root  42.2012 38.2616 5.27508 150.989 76.1304 155.78
RightUpLeg  -18.0813 -0.888842 -14.9056
RightLeg  18.1592 1.1781 -0.0594212
RightFoot  -1.44536 -0.684065 7.75788
RightToes  -4.65661e-009 0 -3.6325e-017
Spine  9.37736 0.429621 -1.49714
Spine1  1.74527 1.65099 -7.32765
HEad  -11.0042 -4.73357 -4.85971
LeftShoulder1  -0.499716 4.82209 -31.4895
LeftArm  1.03629 12.3107 -37.1984
LeftForeArm  28.9733 -44.2604 -8.91199
LeftHand  -0.0567381 3.79736 2.82169
RightShoulder  -0.921934 -6.12026 28.5544
RightArm  16.7174 -13.6074 40.1944
RightForeArm  15.1987 13.1516 5.93228
RightHand  -4.1922e-005 3.61739 -0.246469
LeftUpLeg  4.1915 1.1989 -6.74251
LeftLeg  19.1508 -2.78406 -0.180324
LeftFoot  -15.7896 0.325336 5.94943
LeftToes  9.86798e-010 -1.28139e-010 1.4132e-011
